# File created by Blade
# Date/Time:  Wed Apr 08 14:55:03 2015
# Frame Rate: 120.000 fps
#------------------------------------------------------
:FULLY-SPECIFIED
:DEGREES
2480
root 2.206913 32.784338 -7.117886 13.593969 2.863174 -2.019756
Spine -12.318756 -6.534708 1.134285
Head 7.541627 -5.614767 -1.014661
LeftShoulder -21.081846 36.977370 22.877007
LeftArm 53.152146 -58.984357 -52.730430
LeftForeArm 12.172412 -0.000000 -3.165676
LeftHand 2.721131 -0.000000 5.350921
LeftHandThumb1 -26.253704 0.000000 33.147579
RightShoulder -7.366236 3.467694 -32.683192
RightArm 11.105669 11.418765 37.814675
RightForeArm -8.266147 -0.000000 -2.163980
RightHand 0.857846 -0.000000 0.594280
RightHandThumb1 -24.326973 -0.000000 -32.862282
LeftUpLeg -5.468623 -6.736395 3.251641
LeftLeg -5.274630 -0.000000 0.000000
LeftFoot -5.348669 8.012296 -17.271492
LeftToeBase -6.513684 -0.000000 0.000000
RightUpLeg -6.533054 2.010620 1.565744
RightLeg -4.788240 -0.000000 0.000000
RightFoot -5.928008 -9.640305 9.930135
RightToeBase -2.214831 -0.000000 0.000000
2481
root 2.198618 32.785942 -7.112119 13.516518 2.839962 -2.012798
Spine -12.318446 -6.523218 1.091586
Head 7.648743 -5.584766 -1.011952
LeftShoulder -21.075210 37.022551 22.853627
LeftArm 53.249562 -58.901249 -52.773411
LeftForeArm 12.208469 -0.000000 -3.222798
LeftHand 2.670786 0.000000 5.387479
LeftHandThumb1 -26.253704 0.000000 33.147579
RightShoulder -7.324621 3.428334 -32.650675
RightArm 11.191879 11.382763 37.884843
RightForeArm -8.231484 0.000000 -2.220245
RightHand 0.821023 0.000000 0.625259
RightHandThumb1 -24.326973 -0.000000 -32.862282
LeftUpLeg -5.358735 -6.678244 3.237742
LeftLeg -5.323660 -0.000000 0.000000
LeftFoot -5.286295 7.997724 -17.289324
LeftToeBase -6.495595 -0.000000 0.000000
RightUpLeg -6.443872 1.970029 1.575841
RightLeg -4.795380 -0.000000 0.000000
RightFoot -5.888053 -9.558107 9.963517
RightToeBase -2.235806 -0.000000 0.000000
2482
root 2.190681 32.787195 -7.106838 13.440798 2.808583 -1.998072
Spine -12.315117 -6.501851 1.048638
Head 7.745113 -5.557371 -1.034855
LeftShoulder -21.057445 37.062614 22.827947
LeftArm 53.343955 -58.864104 -52.860496
LeftForeArm 12.291174 -0.000000 -3.249484
LeftHand 2.750707 -0.000000 5.142237
LeftHandThumb1 -26.253704 0.000000 33.147579
RightShoulder -7.264985 3.401976 -32.665507
RightArm 11.212965 11.479045 38.019067
RightForeArm -8.345279 -0.000000 -2.243717
RightHand 0.924733 -0.000000 0.633614
RightHandThumb1 -24.326973 -0.000000 -32.862282
LeftUpLeg -5.250880 -6.626275 3.216745
LeftLeg -5.369772 -0.000000 0.000000
LeftFoot -5.233301 7.982727 -17.312138
LeftToeBase -6.496599 -0.000000 0.000000
RightUpLeg -6.358873 1.945970 1.574389
RightLeg -4.806238 -0.000000 0.000000
RightFoot -5.824754 -9.509185 9.907053
RightToeBase -2.267069 -0.000000 0.000000
2483
root 2.182717 32.788076 -7.100360 13.374504 2.778453 -1.979781
Spine -12.322407 -6.487143 0.999901
Head 7.836747 -5.524308 -1.038738
LeftShoulder -21.025859 37.060574 22.838868
LeftArm 53.242512 -58.732689 -52.771619
LeftForeArm 12.266859 0.000000 -3.260954
LeftHand 2.828203 -0.000000 5.066288
LeftHandThumb1 -26.253704 0.000000 33.147579
RightShoulder -7.194538 3.468054 -32.662172
RightArm 11.160627 11.448483 38.088205
RightForeArm -8.289068 -0.000000 -2.266915
RightHand 1.014048 0.000000 0.759055
RightHandThumb1 -24.326973 -0.000000 -32.862282
LeftUpLeg -5.154045 -6.589124 3.198320
LeftLeg -5.409089 -0.000000 0.000000
LeftFoot -5.168421 7.977143 -17.341551
LeftToeBase -6.607653 -0.000000 0.000000
RightUpLeg -6.275726 1.961531 1.565339
RightLeg -4.834561 -0.000000 0.000000
RightFoot -5.753747 -9.479558 9.881969
RightToeBase -2.373849 -0.000000 0.000000
2484
root 2.175076 32.788787 -7.092779 13.312133 2.766875 -1.956389
Spine -12.337277 -6.493446 0.951955
Head 7.933045 -5.506864 -1.042349
LeftShoulder -20.981771 37.026311 22.863158
LeftArm 53.114737 -58.602159 -52.646874
LeftForeArm 12.272618 -0.000000 -3.287794
LeftHand 2.658007 -0.000000 4.792087
LeftHandThumb1 -26.253704 0.000000 33.147579
RightShoulder -7.151462 3.476645 -32.656989
RightArm 11.179267 11.463115 38.183784
RightForeArm -8.308397 -0.000000 -2.279013
RightHand 0.883309 0.000000 0.865952
RightHandThumb1 -24.326973 -0.000000 -32.862282
LeftUpLeg -5.067365 -6.541345 3.171315
LeftLeg -5.433804 -0.000000 0.000000
LeftFoot -5.136508 7.955979 -17.345431
LeftToeBase -6.548692 -0.000000 0.000000
RightUpLeg -6.189489 1.923862 1.559601
RightLeg -4.871134 -0.000000 0.000000
RightFoot -5.666610 -9.440836 9.813063
RightToeBase -2.399265 -0.000000 0.000000
2485
root 2.165952 32.789705 -7.085876 13.262585 2.754661 -1.941088
Spine -12.365608 -6.491277 0.915102
Head 8.011295 -5.489055 -1.060264
LeftShoulder -20.942213 37.024344 22.866140
LeftArm 53.048844 -58.515808 -52.605693
LeftForeArm 12.252092 -0.000000 -3.279129
LeftHand 2.557844 0.000000 4.701346
LeftHandThumb1 -26.253704 0.000000 33.147579
RightShoulder -7.113658 3.455606 -32.641142
RightArm 11.222515 11.467833 38.255029
RightForeArm -8.345184 -0.000000 -2.316485
RightHand 0.878077 -0.000000 1.007475
RightHandThumb1 -24.326973 -0.000000 -32.862282
LeftUpLeg -5.000643 -6.505416 3.159991
LeftLeg -5.446986 -0.000000 0.000000
LeftFoot -5.103775 7.940729 -17.385748
LeftToeBase -6.638401 -0.000000 0.000000
RightUpLeg -6.110441 1.957592 1.560706
RightLeg -4.925494 -0.000000 0.000000
RightFoot -5.598389 -9.490476 9.774760
RightToeBase -2.391466 -0.000000 0.000000
2486
root 2.156429 32.790823 -7.077728 13.222074 2.754618 -1.930797
Spine -12.409099 -6.481285 0.882633
Head 8.092046 -5.496956 -1.081140
LeftShoulder -20.901267 37.060645 22.863597
LeftArm 53.179393 -58.503223 -52.772124
LeftForeArm 12.237212 -0.000000 -3.266865
LeftHand 2.541984 -0.000000 4.664542
LeftHandThumb1 -26.253704 0.000000 33.147579
RightShoulder -7.099727 3.474648 -32.612489
RightArm 11.237667 11.377221 38.272214
RightForeArm -8.477722 0.000000 -2.353687
RightHand 0.910301 -0.000000 0.921524
RightHandThumb1 -24.326973 -0.000000 -32.862282
LeftUpLeg -4.944196 -6.474166 3.157343
LeftLeg -5.455727 -0.000000 0.000000
LeftFoot -5.078639 7.920935 -17.408567
LeftToeBase -6.641079 -0.000000 0.000000
RightUpLeg -6.034561 1.960043 1.575692
RightLeg -4.980759 -0.000000 0.000000
RightFoot -5.520614 -9.536416 9.691786
RightToeBase -2.412258 -0.000000 0.000000
2487
root 2.146524 32.792161 -7.068768 13.184968 2.755717 -1.918617
Spine -12.453054 -6.490305 0.851111
Head 8.151247 -5.488159 -1.096244
LeftShoulder -20.895707 37.050398 22.841431
LeftArm 53.216317 -58.452959 -52.806465
LeftForeArm 12.192729 -0.000000 -3.279739
LeftHand 2.492090 -0.000000 4.576418
LeftHandThumb1 -26.253704 0.000000 33.147579
RightShoulder -7.069225 3.511416 -32.598121
RightArm 11.234960 11.212934 38.288556
RightForeArm -8.513604 -0.000000 -2.366347
RightHand 0.722414 0.000000 1.027689
RightHandThumb1 -24.326973 -0.000000 -32.862282
LeftUpLeg -4.896681 -6.426993 3.148167
LeftLeg -5.449681 -0.000000 0.000000
LeftFoot -5.060327 7.898541 -17.425604
LeftToeBase -6.630599 -0.000000 0.000000
RightUpLeg -5.953821 1.975395 1.586125
RightLeg -5.043310 -0.000000 0.000000
RightFoot -5.461653 -9.587963 9.644848
RightToeBase -2.405857 -0.000000 0.000000
2488
root 2.137758 32.793309 -7.059890 13.159057 2.760566 -1.902179
Spine -12.505580 -6.492456 0.813167
Head 8.201587 -5.473649 -1.091748
LeftShoulder -20.877860 37.045549 22.828419
LeftArm 53.279282 -58.417299 -52.884794
LeftForeArm 12.030547 -0.000000 -3.272319
LeftHand 2.379185 0.000000 4.592413
LeftHandThumb1 -26.253704 0.000000 33.147579
RightShoulder -7.055147 3.426326 -32.548975
RightArm 11.313464 11.088231 38.265596
RightForeArm -8.526909 0.000000 -2.417366
RightHand 0.617400 -0.000000 1.219877
RightHandThumb1 -24.326973 -0.000000 -32.862282
LeftUpLeg -4.866166 -6.380501 3.132573
LeftLeg -5.432542 -0.000000 0.000000
LeftFoot -5.037049 7.880872 -17.413217
LeftToeBase -6.664349 -0.000000 0.000000
RightUpLeg -5.891446 1.959433 1.595498
RightLeg -5.091760 -0.000000 0.000000
RightFoot -5.399242 -9.617371 9.571101
RightToeBase -2.382651 -0.000000 0.000000
2489
root 2.128109 32.794293 -7.050955 13.141581 2.775652 -1.876799
Spine -12.557836 -6.505865 0.757262
Head 8.227286 -5.336927 -1.099058
LeftShoulder -20.863611 37.005586 22.842168
LeftArm 53.377166 -58.412586 -53.015930
LeftForeArm 12.067956 0.000000 -3.243061
LeftHand 2.332278 -0.000000 4.464159
LeftHandThumb1 -26.253704 0.000000 33.147579
RightShoulder -7.044357 3.369271 -32.497343
RightArm 11.346273 10.988951 38.235215
RightForeArm -8.487884 -0.000000 -2.430862
RightHand 0.586259 0.000000 1.351165
RightHandThumb1 -24.326973 -0.000000 -32.862282
LeftUpLeg -4.843308 -6.373593 3.112808
LeftLeg -5.425063 -0.000000 0.000000
LeftFoot -5.032389 7.933501 -17.404395
LeftToeBase -6.580974 -0.000000 0.000000
RightUpLeg -5.833218 1.932720 1.598952
RightLeg -5.146552 -0.000000 0.000000
RightFoot -5.354354 -9.643272 9.527303
RightToeBase -2.427120 -0.000000 0.000000
2490
root 2.124837 32.795607 -7.041648 13.134749 2.766848 -1.812219
Spine -12.622751 -6.502958 0.683031
Head 8.253441 -5.331676 -1.104456
LeftShoulder -20.884979 37.044947 22.785823
LeftArm 53.494243 -58.402335 -53.113039
LeftForeArm 12.040893 -0.000000 -3.288935
LeftHand 2.554850 -0.000000 4.369109
LeftHandThumb1 -26.253704 0.000000 33.147579
RightShoulder -7.036929 3.300895 -32.485201
RightArm 11.381364 10.951881 38.233111
RightForeArm -8.456027 -0.000000 -2.439108
RightHand 0.542358 -0.000000 1.559372
RightHandThumb1 -24.326973 -0.000000 -32.862282
LeftUpLeg -4.865747 -6.164930 3.020618
LeftLeg -5.325214 -0.000000 0.000000
LeftFoot -4.985287 7.732610 -17.349915
LeftToeBase -6.736043 -0.000000 0.000000
RightUpLeg -5.787976 1.891062 1.546544
RightLeg -5.191028 -0.000000 0.000000
RightFoot -5.315109 -9.615827 9.522676
RightToeBase -2.447729 -0.000000 0.000000
2491
root 2.117205 32.796328 -7.032022 13.117821 2.775576 -1.781706
Spine -12.672715 -6.511194 0.640983
Head 8.264741 -5.352215 -1.086383
LeftShoulder -20.865337 37.035060 22.757023
LeftArm 53.488509 -58.396687 -53.096636
LeftForeArm 12.127976 0.000000 -3.298168
LeftHand 2.629235 -0.000000 4.343194
LeftHandThumb1 -26.253704 0.000000 33.147579
RightShoulder -7.027715 3.299116 -32.484851
RightArm 11.347156 10.932398 38.225234
RightForeArm -8.499062 -0.000000 -2.406574
RightHand 0.517782 -0.000000 1.587650
RightHandThumb1 -24.326973 -0.000000 -32.862282
LeftUpLeg -4.846628 -6.126003 2.986164
LeftLeg -5.302645 -0.000000 0.000000
LeftFoot -4.966876 7.735732 -17.310481
LeftToeBase -6.763096 -0.000000 0.000000
RightUpLeg -5.729133 1.847744 1.539345
RightLeg -5.242245 -0.000000 0.000000
RightFoot -5.275313 -9.602781 9.508635
RightToeBase -2.458724 -0.000000 0.000000
2492
root 2.108716 32.797046 -7.022343 13.102313 2.776619 -1.760975
Spine -12.728207 -6.513835 0.608826
Head 8.282090 -5.390375 -1.083453
LeftShoulder -20.837136 37.031524 22.753592
LeftArm 53.498315 -58.409807 -53.132347
LeftForeArm 12.274037 0.000000 -3.259504
LeftHand 2.483634 -0.000000 4.299666
LeftHandThumb1 -26.253704 0.000000 33.147579
RightShoulder -7.012045 3.277675 -32.468594
RightArm 11.324487 10.988760 38.193971
RightForeArm -8.565451 -0.000000 -2.347624
RightHand 0.284912 -0.000000 1.544093
RightHandThumb1 -24.326973 -0.000000 -32.862282
LeftUpLeg -4.813342 -6.120264 2.962463
LeftLeg -5.311433 -0.000000 0.000000
LeftFoot -4.956221 7.815069 -17.267505
LeftToeBase -6.790741 -0.000000 0.000000
RightUpLeg -5.678791 1.800149 1.544213
RightLeg -5.282078 -0.000000 0.000000
RightFoot -5.239590 -9.568675 9.494771
RightToeBase -2.448883 -0.000000 0.000000
